<svg width="90" height="22" viewBox="0 0 90 22" fill="none" xmlns="http://www.w3.org/2000/svg">
<path d="M28.105 4.09133C27.7763 2.85846 26.8037 1.88585 25.5662 1.55252C23.3288 0.954346 14.3516 0.954346 14.3516 0.954346C14.3516 0.954346 5.379 0.954346 3.13699 1.55252C1.90411 1.88129 0.931508 2.85389 0.598174 4.09133C0 6.32878 0 11 0 11C0 11 0 15.6713 0.598174 17.9087C0.926941 19.1416 1.89954 20.1142 3.13699 20.4475C5.379 21.0457 14.3516 21.0457 14.3516 21.0457C14.3516 21.0457 23.3288 21.0457 25.5662 20.4475C26.7991 20.1187 27.7717 19.1461 28.105 17.9087C28.7032 15.6713 28.7032 11 28.7032 11C28.7032 11 28.7032 6.32878 28.105 4.09133Z" fill="#FF0000"/>
<path d="M11.484 15.306L18.9406 11L11.484 6.69409V15.306Z" fill="white"/>
<path d="M41.662 19.233C41.0958 18.8495 40.6894 18.2559 40.452 17.4477C40.2145 16.6394 40.0912 15.5664 40.0912 14.2239V12.3974C40.0912 11.0413 40.2282 9.9545 40.5022 9.13258C40.7762 8.31066 41.2054 7.71249 41.7853 7.33806C42.3652 6.96363 43.1278 6.77185 44.073 6.77185C45.0045 6.77185 45.7488 6.96363 46.3104 7.34719C46.8721 7.73076 47.283 8.32893 47.5433 9.14172C47.8036 9.9545 47.9314 11.0413 47.9314 12.3929V14.2193C47.9314 15.5618 47.8036 16.6394 47.5524 17.4522C47.3013 18.265 46.8903 18.8632 46.3196 19.2376C45.7534 19.612 44.9817 19.8038 44.0091 19.8038C43.0136 19.8084 42.2282 19.6166 41.662 19.233ZM44.8447 17.2604C44.9999 16.8495 45.0821 16.1783 45.0821 15.2513V11.3289C45.0821 10.4248 45.0045 9.76729 44.8447 9.34719C44.6894 8.93167 44.4109 8.72162 44.0136 8.72162C43.6301 8.72162 43.3607 8.93167 43.2008 9.34719C43.0456 9.76272 42.9634 10.4248 42.9634 11.3289V15.2513C42.9634 16.1828 43.0365 16.8541 43.1871 17.2604C43.3378 17.6714 43.6118 17.8769 44.0091 17.8769C44.4109 17.8769 44.6849 17.6714 44.8447 17.2604Z" fill="#282828"/>
<path d="M85.2557 14.2558V14.8905C85.2557 15.6987 85.2785 16.3014 85.3287 16.7078C85.3744 17.1097 85.4749 17.4065 85.6255 17.5891C85.7762 17.7718 86.0091 17.8677 86.3242 17.8677C86.7488 17.8677 87.0411 17.7033 87.1963 17.3745C87.3516 17.0457 87.4383 16.4978 87.452 15.7307L89.8949 15.8722C89.9086 15.9818 89.9132 16.1325 89.9132 16.3243C89.9132 17.4887 89.5936 18.3562 88.9589 18.9316C88.3242 19.5069 87.4246 19.7946 86.2602 19.7946C84.863 19.7946 83.8858 19.3562 83.3242 18.4795C82.7625 17.6028 82.484 16.2512 82.484 14.4156V12.2192C82.484 10.3288 82.7762 8.9544 83.3561 8.08226C83.936 7.21467 84.9315 6.78088 86.3424 6.78088C87.315 6.78088 88.0593 6.95897 88.5799 7.31513C89.1004 7.6713 89.4657 8.22381 89.6803 8.97723C89.8904 9.73066 90 10.7718 90 12.096V14.2512H85.2557V14.2558ZM85.6164 8.95897C85.4748 9.13705 85.379 9.42929 85.3287 9.83112C85.2785 10.2329 85.2557 10.8494 85.2557 11.6667V12.5708H87.3287V11.6667C87.3287 10.8585 87.3013 10.2466 87.2465 9.83112C87.1917 9.41559 87.0913 9.11879 86.9497 8.94984C86.8082 8.78089 86.5844 8.69413 86.2831 8.69413C85.9817 8.68956 85.758 8.78089 85.6164 8.95897Z" fill="#282828"/>
<path d="M34.767 14.0184L31.5433 2.37908H34.3561L35.4839 7.65306C35.7716 8.95443 35.9816 10.0594 36.1186 10.9773H36.2008C36.2967 10.3197 36.5068 9.21927 36.8355 7.67132L38.0045 2.37451H40.8173L37.557 14.0184V19.6028H34.767V14.0184Z" fill="#282828"/>
<path d="M57.0776 7.01831V19.5982H54.863L54.6164 18.0594H54.5571C53.9543 19.2238 53.0502 19.8037 51.8493 19.8037C51.0137 19.8037 50.3972 19.5297 50 18.9818C49.6027 18.4338 49.4064 17.58 49.4064 16.4156V7.01831H52.2374V16.2558C52.2374 16.8174 52.2968 17.2192 52.4201 17.4567C52.5434 17.6941 52.7488 17.8174 53.0365 17.8174C53.2831 17.8174 53.5205 17.7443 53.7443 17.5937C53.968 17.443 54.137 17.2512 54.2466 17.0183V7.01831H57.0776Z" fill="#282828"/>
<path d="M71.6073 7.01831V19.5982H69.3926L69.1461 18.0594H69.0867C68.484 19.2238 67.5799 19.8037 66.3789 19.8037C65.5433 19.8037 64.9269 19.5297 64.5296 18.9818C64.1324 18.4338 63.936 17.58 63.936 16.4156V7.01831H66.7671V16.2558C66.7671 16.8174 66.8264 17.2192 66.9497 17.4567C67.073 17.6941 67.2785 17.8174 67.5662 17.8174C67.8127 17.8174 68.0502 17.7443 68.2739 17.5937C68.4977 17.443 68.6666 17.2512 68.7762 17.0183V7.01831H71.6073Z" fill="#282828"/>
<path d="M64.7762 4.65769H61.9635V19.5983H59.1918V4.65769H56.379V2.37915H64.7717V4.65769H64.7762Z" fill="#282828"/>
<path d="M80.9817 9.03206C80.8082 8.23754 80.5342 7.6622 80.1506 7.30603C79.7671 6.94987 79.242 6.77179 78.5707 6.77179C78.0502 6.77179 77.5662 6.91791 77.1141 7.21471C76.662 7.50695 76.315 7.89508 76.0684 8.37453H76.0456V1.74438H73.315V19.6028H75.6529L75.9406 18.4111H75.9999C76.2191 18.8357 76.5479 19.1691 76.9862 19.4156C77.4246 19.6622 77.9086 19.7855 78.4429 19.7855C79.4018 19.7855 80.105 19.3426 80.557 18.4613C81.0091 17.58 81.2328 16.201 81.2328 14.3243V12.3334C81.2374 10.927 81.1506 9.82658 80.9817 9.03206ZM78.3835 14.1645C78.3835 15.0823 78.347 15.7992 78.2693 16.3197C78.1963 16.8403 78.0684 17.2102 77.8904 17.4293C77.7123 17.6485 77.4748 17.7581 77.1735 17.7581C76.9406 17.7581 76.726 17.7033 76.5251 17.5937C76.3287 17.4841 76.1643 17.3197 76.041 17.1006V9.95444C76.1369 9.61197 76.3013 9.33343 76.5342 9.11425C76.7671 8.89508 77.0182 8.78549 77.2922 8.78549C77.5798 8.78549 77.8036 8.89964 77.9588 9.12339C78.1141 9.34713 78.2237 9.73069 78.2876 10.2604C78.347 10.7946 78.3789 11.5526 78.3789 12.5389V14.1645H78.3835Z" fill="#282828"/>
</svg>
